<?xml version="1.0" encoding="utf-8"?>
<!-- Generator: Adobe Illustrator 16.0.0, SVG Export Plug-In . SVG Version: 6.00 Build 0)  -->
<!DOCTYPE svg PUBLIC "-//W3C//DTD SVG 1.1//EN" "http://www.w3.org/Graphics/SVG/1.1/DTD/svg11.dtd">
<svg version="1.1" xmlns="http://www.w3.org/2000/svg" xmlns:xlink="http://www.w3.org/1999/xlink" x="0px" y="0px" width="216px"
	 height="360px" viewBox="0 0 216 360" enable-background="new 0 0 216 360" xml:space="preserve">
<g id="Layer_1">
	<g enable-background="new    ">
		<path d="M15.075,209.203h4.864v9.666l8.97-9.666h5.875l-9.002,9.381l9.413,12.729h-5.844l-6.854-9.412l-2.558,2.652v6.76h-4.864
			V209.203z"/>
		<path d="M38.128,209.203h16.677v4.327H42.961v4.485h10.423v4.327H42.961v4.644h12.002v4.327H38.128V209.203z"/>
		<path d="M59.288,209.203h16.677v4.327H64.12v4.485h10.423v4.327H64.12v4.644h12.002v4.327H59.288V209.203z"/>
		<path d="M80.447,209.203h9.033c5.275,0,8.465,3.127,8.465,7.645v0.063c0,5.117-3.98,7.771-8.939,7.771h-3.695v6.633h-4.864
			V209.203z M89.165,220.354c2.432,0,3.853-1.453,3.853-3.349v-0.063c0-2.18-1.516-3.349-3.948-3.349h-3.758v6.76H89.165z"/>
		<path d="M110.038,220.321v-0.063c0-6.286,4.738-11.435,11.529-11.435c4.169,0,6.664,1.39,8.718,3.411l-3.096,3.569
			c-1.706-1.548-3.443-2.495-5.654-2.495c-3.727,0-6.411,3.096-6.411,6.886v0.063c0,3.79,2.621,6.948,6.411,6.948
			c2.527,0,4.075-1.011,5.813-2.59l3.095,3.127c-2.273,2.433-4.801,3.948-9.064,3.948
			C114.871,231.692,110.038,226.67,110.038,220.321z"/>
		<path d="M141.903,209.046h4.485l9.476,22.268h-5.085l-2.021-4.959h-9.35l-2.021,4.959h-4.959L141.903,209.046z M147.021,222.059
			l-2.938-7.17l-2.938,7.17H147.021z"/>
		<path d="M159.272,209.203h4.864v17.688h11.023v4.422h-15.888V209.203z"/>
		<path d="M178.82,209.203h5.243l5.812,9.35l5.812-9.35h5.244v22.11h-4.833v-14.435l-6.223,9.444h-0.126l-6.159-9.35v14.34h-4.77
			V209.203z"/>
	</g>
	<g enable-background="new    ">
		<path d="M86.952,249.085h3.489l7.37,17.319h-3.955l-1.572-3.857h-7.271l-1.572,3.857h-3.857L86.952,249.085z M90.932,259.206
			l-2.285-5.576l-2.285,5.576H90.932z"/>
		<path d="M100.46,249.208h3.488l8.059,10.588v-10.588h3.733v17.196h-3.218l-8.329-10.933v10.933h-3.734V249.208z"/>
		<path d="M119.865,249.208h6.707c5.404,0,9.139,3.709,9.139,8.549v0.049c0,4.84-3.734,8.599-9.139,8.599h-6.707V249.208z
			 M123.648,252.622v10.367h2.924c3.095,0,5.184-2.088,5.184-5.134v-0.05c0-3.046-2.089-5.184-5.184-5.184H123.648z"/>
	</g>
	<g enable-background="new    ">
		<path d="M64.278,286.402h4.864v17.688h11.023v4.422H64.278V286.402z"/>
		<path d="M81.583,297.521v-0.063c0-6.286,4.959-11.435,11.782-11.435s11.718,5.086,11.718,11.371v0.063
			c0,6.285-4.959,11.434-11.781,11.434C86.479,308.892,81.583,303.807,81.583,297.521z M99.999,297.521v-0.063
			c0-3.791-2.78-6.949-6.696-6.949c-3.917,0-6.633,3.096-6.633,6.886v0.063c0,3.79,2.78,6.948,6.696,6.948
			S99.999,301.312,99.999,297.521z"/>
		<path d="M108.427,297.521v-0.063c0-6.286,4.739-11.435,11.53-11.435c4.169,0,6.664,1.39,8.718,3.411l-3.096,3.569
			c-1.706-1.548-3.443-2.495-5.654-2.495c-3.727,0-6.411,3.096-6.411,6.886v0.063c0,3.79,2.621,6.948,6.411,6.948
			c2.527,0,4.075-1.011,5.813-2.59l3.095,3.127c-2.273,2.433-4.801,3.948-9.064,3.948
			C113.261,308.892,108.427,303.869,108.427,297.521z"/>
		<path d="M132.713,286.402h4.864v9.666l8.97-9.666h5.875l-9.002,9.381l9.413,12.729h-5.844l-6.854-9.412l-2.559,2.652v6.76h-4.864
			V286.402z"/>
	</g>
	<g enable-background="new    ">
		<path d="M34.639,328.51h4.864v22.11h-4.864V328.51z"/>
		<path d="M50.177,332.995h-6.728v-4.485h18.32v4.485h-6.728v17.625h-4.864V332.995z"/>
		<path d="M74.967,328.51h8.623c6.949,0,11.75,4.77,11.75,10.992v0.063c0,6.222-4.801,11.055-11.75,11.055h-8.623V328.51z
			 M79.831,332.9v13.329h3.758c3.98,0,6.665-2.685,6.665-6.602v-0.063c0-3.917-2.685-6.665-6.665-6.665H79.831z"/>
		<path d="M98.684,339.628v-0.063c0-6.286,4.959-11.435,11.782-11.435c6.822,0,11.718,5.086,11.718,11.371v0.063
			c0,6.285-4.958,11.434-11.781,11.434C103.58,350.999,98.684,345.914,98.684,339.628z M117.099,339.628v-0.063
			c0-3.791-2.779-6.949-6.696-6.949c-3.917,0-6.633,3.096-6.633,6.886v0.063c0,3.79,2.779,6.948,6.697,6.948
			C114.383,346.514,117.099,343.419,117.099,339.628z"/>
		<path d="M123.538,328.51h5.212l4.58,14.972l4.959-15.034h4.169l4.959,15.034l4.58-14.972h5.085l-7.549,22.269h-4.232l-4.99-14.467
			l-4.99,14.467h-4.233L123.538,328.51z"/>
		<path d="M160.678,328.51h4.485l10.359,13.614V328.51h4.802v22.11h-4.138l-10.708-14.056v14.056h-4.801V328.51z"/>
	</g>
	<g>
		<g id="XMLID_2_">
			<g>
				<path fill="none" stroke="#000000" stroke-width="6.6624" stroke-miterlimit="10" d="M170.324,157.998
					c0,9.944-7.412,17.989-16.557,17.989H61.344c-9.145,0-16.556-8.045-16.556-17.989V26.582c0-9.928,7.412-17.989,16.556-17.989
					h92.424c9.145,0,16.557,8.062,16.557,17.989V157.998L170.324,157.998z"/>
				<path fill="none" stroke="#000000" stroke-width="6.6624" stroke-miterlimit="10" d="M164.043,134.396
					c0,7.944-6.66,14.39-14.89,14.39H65.958c-8.229,0-14.892-6.446-14.892-14.39V29.263c0-7.944,6.662-14.39,14.892-14.39h83.197
					c8.229,0,14.891,6.446,14.891,14.39v105.134H164.043z"/>
			</g>
		</g>
		<path fill="none" stroke="#000000" stroke-width="1.7716" stroke-miterlimit="10" d="M115.59,165.838
			c0,2.218-1.801,4.017-4.016,4.017h-8.036c-2.218,0-4.018-1.799-4.018-4.017v-8.033c0-2.22,1.8-4.019,4.018-4.019h8.036
			c2.217,0,4.016,1.799,4.016,4.019V165.838z"/>
		<g id="XMLID_1_">
			<g>
				<path d="M130.215,75.04v33.228c0,3.332-2.697,6.047-6.045,6.047H90.938c-3.347,0-6.046-2.715-6.046-6.047V75.04
					c0-3.348,2.698-6.047,6.046-6.047h33.228C127.516,68.992,130.215,71.69,130.215,75.04z M116.758,108.4l-6.58-19.021
					c1.731-0.949,2.915-2.781,2.915-4.88c0-3.048-2.482-5.547-5.547-5.547c-3.048,0-5.529,2.499-5.529,5.547
					c0,2.115,1.181,3.948,2.931,4.88L98.352,108.4H116.758z"/>
			</g>
			<g>
				<path fill="none" stroke="#000000" stroke-width="9.9936" stroke-miterlimit="10" d="M130.215,108.267
					c0,3.332-2.697,6.047-6.045,6.047H90.938c-3.347,0-6.046-2.715-6.046-6.047V75.04c0-3.348,2.698-6.047,6.046-6.047h33.228
					c3.35,0,6.047,2.699,6.047,6.047v33.228H130.215z"/>
			</g>
		</g>
		<g enable-background="new    ">
			<path d="M89.229,75.028V60.707c0-11.541,7.921-19.515,18.256-19.515h0.104c10.335,0,18.361,7.974,18.361,19.515v14.321H89.229z
				 M96.521,66.949h22.138v-6.243c0-6.61-4.459-11.069-10.964-11.069h-0.105c-6.505,0-11.068,4.459-11.068,11.069V66.949z"/>
		</g>
		<rect x="93.675" y="104.511" stroke="#000000" stroke-width="1.6656" stroke-miterlimit="10" width="31.092" height="4.998"/>
		<rect x="46.154" y="146.29" stroke="#000000" stroke-width="1.6312" stroke-miterlimit="10" width="53.366" height="19.547"/>
		<rect x="115.552" y="148.788" stroke="#000000" stroke-width="1.6656" stroke-miterlimit="10" width="53.301" height="15.545"/>
		<rect x="46.709" y="158.227" stroke="#000000" stroke-width="1.6656" stroke-miterlimit="10" width="51.633" height="9.438"/>
		<g>
			<g>
				<path d="M56.147,174.051c13.306,0.899,26.137,6.283,39.416,2.07c2.095-0.663,3.616-2.896,2.908-5.121
					c-3.158-9.917-22.554-7.231-30.248-7.198c-4.312,0.019-12.436,1.068-13.994-4.124c-2.275-7.586-0.288-15.653-2.396-23.103
					c-1.458-5.159-9.495-2.964-8.03,2.214c0.931,3.29,0.381,7.164,0.459,10.558c0.089,3.863,0.908,7.687,1.676,11.46
					c1.209,5.938,5.089,9.052,10.776,10.54c5.363,1.404,11.335,0.772,16.808,0.764c3.612-0.004,7.22,0.07,10.822,0.335
					c1.521,0.113,3.004,0.346,4.494,0.673c1.364,0.299,1.998,1.34,1.601,0.094c0.97-1.708,1.938-3.415,2.908-5.122
					c-12.245,3.884-24.856-1.534-37.202-2.369C50.784,165.36,50.817,173.692,56.147,174.051L56.147,174.051z"/>
			</g>
		</g>
		<g>
			<g>
				<path d="M50.762,26.257c4.021-3.685,6.205-10.045,12.046-11.143c5.273-0.992,3.034-9.017-2.214-8.03
					c-7.88,1.481-10.399,8.409-15.719,13.285C40.905,24.003,46.812,29.876,50.762,26.257L50.762,26.257z"/>
			</g>
		</g>
		<g>
			<g>
				<path d="M146.646,16.929c3.512,0.34,7.063,1.588,10.241,3.068c2.008,0.937,7.801,3.678,7.397,6.65
					c-0.71,5.249,7.312,7.515,8.03,2.214C174.077,15.855,157.04,9.61,146.646,8.6C141.301,8.082,141.35,16.415,146.646,16.929
					L146.646,16.929z"/>
			</g>
		</g>
		<g>
			<g>
				<path d="M160.396,143.24c-0.586,2.399-1.079,4.819-1.665,7.219c-1.092,4.473,5.366,7.515,7.609,3.208
					c2.461-4.724,2.225-9.724,2.792-14.872c0.248-2.262-2.083-4.164-4.164-4.164c-2.457,0-3.916,1.909-4.163,4.164
					c-0.39,3.525,0.028,7.437-1.653,10.667c2.536,1.069,5.074,2.139,7.609,3.208c0.587-2.399,1.081-4.819,1.665-7.218
					C169.699,140.237,161.668,138.024,160.396,143.24L160.396,143.24z"/>
			</g>
		</g>
		<g>
			<g>
				<path d="M160.356,162.5c-7.287,7.998-21.357,4.458-30.921,4.332c1.386,1.388,2.775,2.777,4.163,4.165
					c0.07-3.125,21.395-1.8,24.701-2.648c5.198-1.333,2.992-9.365-2.215-8.03c-8.814,2.26-30.479-4.169-30.815,10.678
					c-0.052,2.291,1.935,4.135,4.166,4.164c12.217,0.16,27.517,3.429,36.813-6.772C169.854,164.43,163.982,158.523,160.356,162.5
					L160.356,162.5z"/>
			</g>
		</g>
		<g>
			<g>
				<path d="M127.771,165.316c-1.326,0.29,0.658,0.022-0.658,0.081c-0.43,0.019-0.859-0.024-1.286-0.063
					c0.835,0.079-0.442-0.133-0.506-0.148c-0.488-0.114-0.967-0.268-1.441-0.423c0.83,0.637,1.659,1.276,2.487,1.914
					c-0.558,2.803-0.506,3.684,0.157,2.642c0.152-0.209,0.285-0.428,0.4-0.659c1.111-1.981,0.49-4.536-1.493-5.697
					c-1.934-1.131-4.59-0.483-5.696,1.494c-0.691,1.228-1.284,2.182-1.354,3.662c-0.104,2.299,1.575,4.119,3.625,4.785
					c2.6,0.845,5.308,1.027,7.98,0.445c2.217-0.484,3.483-3.025,2.906-5.122C132.268,165.949,129.985,164.832,127.771,165.316
					L127.771,165.316z"/>
			</g>
		</g>
		<g>
			<g>
				<path d="M119.194,168.768c0.501-2.224,0.513-1.642,0.244-3.816c-0.117-0.955-1.382-1.513-1.939-0.524
					c-0.829,1.468-0.734,1.249-1.145,2.954c0.682,0.093,1.362,0.184,2.045,0.277c0.058-0.671,0.113-1.341,0.171-2.012
					c0.179-1.125-1.25-1.867-1.903-0.803c-1.072,1.748-0.949,4.464-2.544,5.826c-0.899,0.77,0.284,2.291,1.263,1.637
					c1.475-0.988,2.108-1.941,3.079-3.497c-0.635-0.267-1.269-0.535-1.902-0.803c-0.506,1.46-0.489,1.472-0.662,2.982
					c-0.072,0.609,0.53,0.984,1.04,1.042c1.329,0.15,2.622,0.202,3.956,0.209c-0.09-0.682-0.184-1.363-0.276-2.045
					c-0.952,0.405-1.923,0.754-2.916,1.041c-1.154,0.37-0.883,1.948,0.278,2.045c1.705,0.143,3.291,0.143,4.995,0
					c1.333-0.11,1.349-1.994,0-2.081c-8.913-0.584-17.78-0.542-26.648,0.624c-1.292,0.169-1.366,2.182,0,2.081
					c8.671-0.632,17.331-1.406,26.025-1.664c1.191-0.035,1.394-1.681,0.276-2.045c-2.006-0.653-4.019-1.268-6.038-1.875
					c0.083,0.635,0.167,1.269,0.249,1.904c0.818-0.312,1.641-0.624,2.459-0.936c-0.339-0.58-0.676-1.16-1.014-1.741
					c-1.419,0.731-2.842,1.463-4.261,2.194c0.246,0.593,0.491,1.186,0.736,1.777c0.486-0.555,0.973-1.11,1.458-1.665
					c-0.49-0.491-0.982-0.982-1.472-1.474c-2.688,3.204-6.62,2.294-10.3,2.194c0,0.695,0,1.389,0,2.082
					c3.318-0.375,6.382,0.259,9.478-1.183c1.166-0.543,0.26-2.057-0.804-1.903c-3.214,0.468-15.776,3.985-15.962-1.702
					c-0.522,0.3-1.043,0.6-1.565,0.899c3.095,2.036,4.339,5.667,8.506,5.101c0.846-0.115,0.903-1.224,0.459-1.74
					c-1.758-2.045-4.366-2.879-6.037-4.997c-0.421,0.545-0.843,1.091-1.262,1.636c3.045,1.39,5.839,3.057,9.11,3.861
					c3.764,0.928,8.236,0.259,12.027-0.181c3.199-0.37,5.94-2.646,6.313-5.94c0.722-6.407-4.804-16.848-12.42-15.258
					c-0.978,0.204-0.9,1.415-0.249,1.903c0.855,0.694,1.755,1.318,2.707,1.873c0.987,0.628,2.175-0.87,1.262-1.635
					c-3.024-2.531-14.938-5.151-17.25-0.622c-0.437,0.856,0.508,2.066,1.425,1.423c4.708-3.295,11.356-2.205,16.687-1.352
					c0.093-0.681,0.184-1.364,0.277-2.045c-5.657,0.729-12.294-1.305-17.181,2.432c-1.051,0.804-0.017,2.614,1.051,1.798
					c4.493-3.437,10.899-1.474,16.13-2.149c1.05-0.135,1.544-1.842,0.276-2.045c-5.904-0.944-13.072-2.089-18.29,1.563
					c0.475,0.475,0.949,0.95,1.424,1.424c1.492-2.92,11.978-0.63,13.98,1.043c0.42-0.545,0.841-1.091,1.262-1.635
					c-0.952-0.555-1.853-1.179-2.707-1.874c-0.083,0.634-0.165,1.269-0.249,1.904c5.666-1.184,9.552,7.061,9.89,11.551
					c0.379,5.047-4.354,5.626-8.244,5.945c-6.215,0.51-10.677-1.271-16.179-3.783c-1.107-0.506-2,0.699-1.261,1.635
					c1.705,2.159,4.252,2.921,6.038,4.996c0.153-0.58,0.307-1.159,0.459-1.74c-2.751,0.375-4.869-3.555-6.901-4.891
					c-0.654-0.431-1.592,0.133-1.565,0.899c0.274,8.361,13.726,4.418,18.598,3.71c-0.267-0.634-0.534-1.268-0.802-1.903
					c-2.588,1.205-5.685,0.587-8.428,0.898c-1.305,0.148-1.373,2.046,0,2.082c4.442,0.121,8.634,0.938,11.771-2.802
					c0.853-1.017-0.583-2.491-1.473-1.474c-0.487,0.556-0.972,1.111-1.459,1.666c-0.567,0.651-0.227,1.802,0.737,1.777
					c2.597-0.069,4.065-0.815,5.733-2.803c0.619-0.739,0.059-2.09-1.013-1.74c-1.221,0.397-1.776,0.625-2.958,1.145
					c-0.872,0.386-0.535,1.667,0.25,1.904c2.018,0.606,4.033,1.223,6.037,1.875c0.092-0.681,0.185-1.364,0.276-2.046
					c-8.693,0.258-17.354,1.032-26.024,1.665c0,0.694,0,1.387,0,2.081c8.868-1.166,17.736-1.208,26.649-0.624
					c0-0.693,0-1.387,0-2.082c-1.705,0.142-3.292,0.142-4.996,0c0.091,0.681,0.183,1.363,0.275,2.046
					c0.993-0.288,1.966-0.635,2.916-1.041c1.052-0.41,0.966-2.038-0.276-2.046c-1.706-0.009-3.156,0.79-2.327-1.597
					c0.397-1.153-1.297-1.774-1.904-0.803c-0.545,1.104-1.323,2.021-2.332,2.75c0.421,0.544,0.842,1.091,1.262,1.635
					c2.07-1.768,1.505-4.021,2.869-6.249c-0.634-0.267-1.268-0.535-1.903-0.803c-0.164,1.042-0.221,1.514-0.243,2.566
					c-0.025,1.173,1.768,1.423,2.044,0.276c0.312-0.819,0.623-1.639,0.937-2.458c-0.648-0.175-1.292-0.351-1.94-0.525
					c-0.058,1.087-0.115,2.175-0.172,3.263C116.894,169.521,118.9,170.076,119.194,168.768L119.194,168.768z"/>
			</g>
		</g>
		<rect x="62.81" y="147.047" width="94.732" height="6.661"/>
	</g>
</g>
<g id="Layer_2">
</g>
</svg>
